<?xml version="1.0" encoding="UTF-8" standalone="no"?>
<svg
        width="16"
        height="16"
        viewBox="0 0 16 16"
        fill="none"
        version="1.1"
        id="svg8"
        xml:space="preserve"
        xmlns="http://www.w3.org/2000/svg"
><defs
     id="defs12"><clipPath
       id="clip0"><rect
         width="413.4"
         height="462.6"
         fill="white"
         id="rect369" /></clipPath></defs>
    <path
            fill-rule="evenodd"
            clip-rule="evenodd"
            d="M1.70294 2.70294C1 3.40589 1 4.53726 1 6.8V7.2C1 9.46274 1 10.5941 1.70294 11.2971C2.40589 12 3.53726 12 5.8 12H6.2C8.46274 12 9.59411 12 10.2971 11.2971C11 10.5941 11 9.46274 11 7.2V6.8C11 4.53726 11 3.40589 10.2971 2.70294C9.59411 2 8.46274 2 6.2 2H5.8C3.53726 2 2.40589 2 1.70294 2.70294ZM2.68752 5.125C2.74182 7.74062 4.04505 9.3125 6.32991 9.3125H6.45943V7.81606C7.29902 7.8999 7.93389 8.51608 8.18869 9.3125H9.37502C9.04921 8.12206 8.19286 7.46396 7.65819 7.21246C8.19286 6.90227 8.94474 6.14777 9.12435 5.125H8.04663C7.81272 5.95496 7.11941 6.70945 6.45943 6.78071V5.125H5.38171V8.02565C4.71338 7.85798 3.86963 7.0448 3.83203 5.125H2.68752Z"
            fill="#2688EB"
            id="path2"/>
    <path
            fill-rule="evenodd"
            clip-rule="evenodd"
            d="M2.68752 5.125C2.74182 7.74062 4.04505 9.3125 6.32991 9.3125H6.45943V7.81606C7.29902 7.8999 7.93389 8.51608 8.18869 9.3125H9.37502C9.0492 8.12206 8.19286 7.46396 7.65819 7.21246C8.19286 6.90227 8.94474 6.14777 9.12435 5.125H8.04663C7.81271 5.95496 7.1194 6.70945 6.45943 6.78071V5.125H5.38171V8.02565C4.71338 7.85798 3.86962 7.0448 3.83203 5.125H2.68752Z"
            fill="white"
            id="path4"/>
    <g
            style="fill:none"
            id="g419"
            transform="matrix(0.01765564,0,0,0.01765564,8.6895609,7.7540059)"><g
       clip-path="url(#clip0)"
       id="g367"><path
         d="m 124.5,279.6 c -0.8,-1.4 -1.4,-3 -1.7,-4.7 0.3,1.6 0.9,3.2 1.7,4.7 z"
         fill="#083042"
         id="path291" /><path
            d="m 124.4,186.3 c -0.8,1.9 -1.3,3.9 -1.5,6.1 0.2,-2.2 0.7,-4.2 1.5,-6.1 z"
            fill="#083042"
            id="path293"/><path
            d="m 126.601,282.2 c 0.8,0.8 1.7,1.5 2.7,2 l 68.2,38.5 -68.2,-38.5 c -1,-0.5 -1.9,-1.2 -2.7,-2 z"
            fill="#083042"
            id="path295"/><path
            d="m 208,371.4 c -0.2,0 -0.4,0 -0.5,0 -5,0 -10,-1.2 -14.5,-3.7 L 91.2003,310.3 c -6,-3.4 -9.7,-9.7 -9.7,-16.5 V 177 c 0,-5 0.9,-9.8 3,-14 L 4.90026,118.3 c -3.3,7 -4.9999953,14.9 -4.899995287,23.2 V 334.4 C 0.100265,345.7 6.20027,356.1 16.1003,361.7 L 184,456.5 c 7.4,4.2 15.7,6.2 23.9,6.2 v -0.1 c 0.2,-12.1 0.1,-60.6 0.1,-91.2 z"
            fill="#083042"
            id="path297"/><path
            d="m 287.9,184.2 c -0.2,-0.3 -0.4,-0.6 -0.6,-0.9 -0.5,-0.7 -1,-1.3 -1.5,-2 0.5,0.6 1,1.3 1.5,2 0.2,0.2 0.4,0.5 0.6,0.9 z"
            fill="#3ddb85"
            id="path299"/><path
            d="m 125.3,184.3 c 0.4,-0.7 0.9,-1.4 1.4,-2.1 -0.5,0.7 -1,1.4 -1.4,2.1 z"
            fill="#3ddb85"
            id="path301"/><path
            d="m 204.101,137.4 c 0.5,0 0.9,-0.1 1.4,-0.1 -0.5,0.1 -1,0.1 -1.4,0.1 z"
            fill="#3ddb85"
            id="path303"/><path
            d="m 84.4004,162.9 c 2.2,-4.6 5.6,-8.4 10.2,-11.2 L 190.4,95.2 c 8.9,-5.3 19.9,-5.4 29,-0.3 l 96.8,54.7 c 4.3,2.4 8.1,5.9 10.9,10 l 78.3,-46.7 c -4.6,-6.7 -10.8,-12.4 -17.9,-16.4 L 227.6,6.20001 c -14.9,-8.4 -33.1,-8.2 -47.8,0.5 L 21.7004,99.9 c -7.6,4.5 -13.20001,10.9 -16.80001,18.4 z"
            fill="#3ddc85"
            id="path305"/><path
            d="m 200.101,138.2 c 0.2,-0.1 0.4,-0.1 0.6,-0.2 -0.2,0.1 -0.4,0.1 -0.6,0.2 z"
            fill="#3ddb85"
            id="path307"/><path
            d="m 124.7,185.4 c 0.2,-0.4 0.4,-0.8 0.6,-1.1 -0.2,0.4 -0.4,0.7 -0.6,1.1 -0.1,0.3 -0.2,0.6 -0.3,0.9 0.1,-0.3 0.2,-0.6 0.3,-0.9 z"
            fill="#3ddb85"
            id="path309"/><path
            d="M 405.3,112.9 327,159.6 c 3,4.4 4.8,9.6 4.9,14.9 v 111.2 c 0.1,10.4 -5.3,20 -14.2,25.2 l -95.8,56.5 c -4.3,2.5 -9.1,3.9 -13.9,4 0.1,30.5 0.1,79 -0.1,91.1 v 0.1 c 8.3,-0.1 16.5,-2.3 23.9,-6.6 l 158.1,-93.3 c 14.7,-8.7 23.7,-24.5 23.5,-41.6 V 137.6 c -0.1,-8.9 -3.1,-17.4 -8.1,-24.7 z"
            fill="#4285f4"
            id="path311"/><path
            d="m 289.7,273.8 c -0.1,0.2 -0.1,0.4 -0.2,0.6 0.1,-0.2 0.2,-0.4 0.2,-0.6 z"
            fill="#4285f4"
            id="path313"/><path
            d="m 288.7,185.5 c -0.2,-0.5 -0.5,-0.9 -0.8,-1.4 0.3,0.5 0.6,1 0.8,1.4 z"
            fill="#4285f4"
            id="path315"/><path
            d="m 216.9,322.6 64.2,-37.9 c 0.4,-0.2 0.7,-0.5 1.1,-0.7 -0.4,0.2 -0.7,0.5 -1.1,0.7 z"
            fill="#4285f4"
            id="path317"/><path
            d="m 288.9,276.1 c -0.2,0.5 -0.5,1 -0.7,1.5 0.2,-0.6 0.4,-1.1 0.7,-1.5 z"
            fill="#4285f4"
            id="path319"/><path
            d="m 284.2,282.4 c 0.9,-0.8 1.8,-1.8 2.6,-2.8 -0.8,1 -1.7,2 -2.6,2.8 z"
            fill="#4285f4"
            id="path321"/><path
            d="m 288.1,277.5 c -0.4,0.7 -0.9,1.4 -1.4,2.1 0.5,-0.7 1,-1.4 1.4,-2.1 z"
            fill="#4285f4"
            id="path323"/><path
            d="m 124.4,186.3 c -0.8,1.9 -1.3,3.9 -1.5,6.1 -0.1,0.8 -0.1,1.6 -0.1,2.5 v 78.3 c 0,0.6 0,1.1 0.1,1.7 0.2,1.7 0.8,3.3 1.7,4.7 0.6,1 1.3,1.8 2,2.6 0.8,0.8 1.7,1.5 2.7,2 l 68.2,38.5 c 3,1.7 6.4,2.5 9.7,2.5 0.2,0 0.5,0 0.7,0 3.1,-0.1 6.2,-1 9,-2.7 l 64.2,-37.9 c 0.4,-0.2 0.7,-0.5 1.1,-0.7 0.7,-0.5 1.4,-1 2,-1.6 0.9,-0.8 1.8,-1.8 2.6,-2.8 0.5,-0.7 1,-1.4 1.4,-2.1 0.3,-0.5 0.5,-1 0.7,-1.5 0.2,-0.5 0.5,-1.1 0.7,-1.7 0.1,-0.2 0.1,-0.4 0.2,-0.6 0.6,-1.9 0.9,-3.9 0.9,-6 v -74.5 c 0,-1.4 -0.2,-2.7 -0.5,-4 -0.2,-0.9 -0.5,-1.7 -0.8,-2.5 -0.2,-0.4 -0.4,-0.8 -0.6,-1.2 -0.2,-0.5 -0.5,-0.9 -0.8,-1.4 -0.2,-0.3 -0.4,-0.6 -0.6,-0.9 -0.5,-0.7 -1,-1.3 -1.5,-2 -1.6,-1.9 -3.6,-3.5 -5.8,-4.7 l -64.9,-36.7 c -1.1,-0.6 -2.3,-1.2 -3.5,-1.6 -1.6,-0.5 -3.3,-0.8 -5,-0.9 -0.4,0 -0.8,0 -1.3,0 -0.5,0 -0.9,0 -1.4,0.1 -1.1,0.1 -2.3,0.3 -3.4,0.6 -0.2,0.1 -0.4,0.1 -0.6,0.2 -1.5,0.4 -2.9,1.1 -4.3,1.9 l -64.2,37.9 c -1.9,1.1 -3.5,2.6 -4.8,4.3 -0.5,0.7 -1,1.4 -1.4,2.1 -0.2,0.4 -0.4,0.7 -0.6,1.1 -0.1,0.3 -0.2,0.6 -0.3,0.9 z"
            fill="#d6f0ff"
            id="path325"/><path
            d="m 207.9,325.2 c -0.2,0 -0.5,0 -0.7,0 -3.3,0 -6.7,-0.8 -9.7,-2.5 l -68.2,-38.5 c -1,-0.6 -1.9,-1.2 -2.7,-2 -0.8,-0.8 -1.5,-1.7 -2,-2.6 -0.8,-1.4 -1.4,-3 -1.7,-4.7 -0.1,-0.6 -0.1,-1.1 -0.1,-1.7 v -78.3 c 0,-0.8 0,-1.7 0.1,-2.5 0.2,-2.1 0.7,-4.2 1.5,-6.1 L 106,175 84.4004,162.9 c -2,4.2 -3,9 -3,14 v 116.8 c 0.1,6.8 3.8,13.1 9.7,16.5 L 192.8,367.7 c 4.5,2.5 9.5,3.8 14.5,3.7 0.2,0 0.4,0 0.5,0 0,-14.9 -0.1,-25.5 -0.1,-25.5 z"
            fill="#083042"
            id="path327"/><path
            d="m 207.9,325.2 c -0.2,0 -0.5,0 -0.7,0 -3.3,0 -6.7,-0.8 -9.7,-2.5 l -68.2,-38.5 c -1,-0.6 -1.9,-1.2 -2.7,-2 -0.8,-0.8 -1.5,-1.7 -2,-2.6 -0.8,-1.4 -1.4,-3 -1.7,-4.7 -0.1,-0.6 -0.1,-1.1 -0.1,-1.7 v -78.3 c 0,-0.8 0,-1.7 0.1,-2.5 0.2,-2.1 0.7,-4.2 1.5,-6.1 L 106,175 84.4004,162.9 c -2,4.2 -3,9 -3,14 v 116.8 c 0.1,6.8 3.8,13.1 9.7,16.5 L 192.8,367.7 c 4.5,2.5 9.5,3.8 14.5,3.7 0.2,0 0.4,0 0.5,0 0,-14.9 -0.1,-25.5 -0.1,-25.5 z"
            fill="#041619"
            id="path329"/><path
            d="M 316.1,149.6 219.3,94.9 c -9,-5.1 -20,-5 -29,0.3 l -95.8002,56.5 c -4.6,2.7 -8,6.6 -10.2,11.2 L 106,175 l 18.4,11.3 c 0.1,-0.3 0.2,-0.6 0.3,-0.9 0.2,-0.4 0.4,-0.8 0.6,-1.1 0.4,-0.7 0.9,-1.4 1.4,-2.1 1.3,-1.7 2.9,-3.1 4.8,-4.3 L 195.7,140 c 1.4,-0.8 2.8,-1.4 4.3,-1.9 0.2,-0.1 0.4,-0.1 0.6,-0.2 1.1,-0.3 2.2,-0.5 3.4,-0.6 0.5,0 0.9,-0.1 1.4,-0.1 0.4,0 0.8,0 1.3,0 1.7,0.1 3.3,0.4 5,0.9 1.2,0.4 2.4,0.9 3.5,1.6 l 64.9,36.7 c 2.2,1.2 4.1,2.8 5.8,4.7 0.5,0.6 1,1.3 1.5,2 0.2,0.3 0.4,0.6 0.6,0.9 l 16.6,-11.1 22.5,-13.5 c -2.9,-3.9 -6.6,-7.4 -11,-9.8 z"
            fill="#3ddb85"
            id="path331"/><path
            d="M 316.1,149.6 219.3,94.9 c -9,-5.1 -20,-5 -29,0.3 l -95.8002,56.5 c -4.6,2.7 -8,6.6 -10.2,11.2 L 106,175 l 18.4,11.3 c 0.1,-0.3 0.2,-0.6 0.3,-0.9 0.2,-0.4 0.4,-0.8 0.6,-1.1 0.4,-0.7 0.9,-1.4 1.4,-2.1 1.3,-1.7 2.9,-3.1 4.8,-4.3 L 195.7,140 c 1.4,-0.8 2.8,-1.4 4.3,-1.9 0.2,-0.1 0.4,-0.1 0.6,-0.2 1.1,-0.3 2.2,-0.5 3.4,-0.6 0.5,0 0.9,-0.1 1.4,-0.1 0.4,0 0.8,0 1.3,0 1.7,0.1 3.3,0.4 5,0.9 1.2,0.4 2.4,0.9 3.5,1.6 l 64.9,36.7 c 2.2,1.2 4.1,2.8 5.8,4.7 0.5,0.6 1,1.3 1.5,2 0.2,0.3 0.4,0.6 0.6,0.9 l 16.6,-11.1 22.5,-13.5 c -2.9,-3.9 -6.6,-7.4 -11,-9.8 z"
            fill="#37bf6e"
            id="path333"/><path
            d="m 287.9,184.2 c 0.3,0.5 0.5,0.9 0.8,1.4 0.2,0.4 0.4,0.8 0.6,1.2 0.3,0.8 0.6,1.7 0.8,2.5 0.3,1.3 0.5,2.6 0.5,4 v 74.5 c 0,2.1 -0.3,4.1 -0.9,6 -0.1,0.2 -0.1,0.4 -0.2,0.6 -0.2,0.6 -0.4,1.1 -0.7,1.7 -0.2,0.5 -0.5,1 -0.7,1.5 -0.4,0.7 -0.9,1.4 -1.4,2.1 -0.8,1 -1.6,1.9 -2.6,2.8 -0.6,0.6 -1.3,1.1 -2,1.6 -0.4,0.2 -0.7,0.5 -1.1,0.7 l -64.2,37.9 c -2.8,1.6 -5.9,2.5 -9,2.7 v 20.7 c 0,0 0,10.6 0.1,25.5 4.8,-0.1 9.6,-1.4 13.9,-4 l 95.8,-56.5 c 8.9,-5.3 14.3,-14.9 14.2,-25.2 V 174.7 c -0.1,-5.4 -1.9,-10.5 -4.9,-14.9 l -22.5,13.5 z"
            fill="#4285f4"
            id="path335"/><path
            d="m 287.9,184.2 c 0.3,0.5 0.5,0.9 0.8,1.4 0.2,0.4 0.4,0.8 0.6,1.2 0.3,0.8 0.6,1.7 0.8,2.5 0.3,1.3 0.5,2.6 0.5,4 v 74.5 c 0,2.1 -0.3,4.1 -0.9,6 -0.1,0.2 -0.1,0.4 -0.2,0.6 -0.2,0.6 -0.4,1.1 -0.7,1.7 -0.2,0.5 -0.5,1 -0.7,1.5 -0.4,0.7 -0.9,1.4 -1.4,2.1 -0.8,1 -1.6,1.9 -2.6,2.8 -0.6,0.6 -1.3,1.1 -2,1.6 -0.4,0.2 -0.7,0.5 -1.1,0.7 l -64.2,37.9 c -2.8,1.6 -5.9,2.5 -9,2.7 v 20.7 c 0,0 0,10.6 0.1,25.5 4.8,-0.1 9.6,-1.4 13.9,-4 l 95.8,-56.5 c 8.9,-5.3 14.3,-14.9 14.2,-25.2 V 174.7 c -0.1,-5.4 -1.9,-10.5 -4.9,-14.9 l -22.5,13.5 z"
            fill="#3870b2"
            id="path337"/><path
            d="m 200.101,138.2 c -1.5,0.4 -2.9,1.1 -4.3,1.9 l -64.2,37.9 64.2,-37.9 c 1.3,-0.8 2.8,-1.5 4.3,-1.9 z"
            fill="#d6f0ff"
            id="path339"/><path
            opacity="0.1"
            d="m 200.101,138.2 c -1.5,0.4 -2.9,1.1 -4.3,1.9 l -64.2,37.9 64.2,-37.9 c 1.3,-0.8 2.8,-1.5 4.3,-1.9 z"
            fill="#000000"
            id="path341"/><path
            d="m 285.801,181.3 c -1.6,-1.9 -3.6,-3.5 -5.8,-4.7 l -64.9,-36.7 64.9,36.7 c 2.2,1.2 4.2,2.8 5.8,4.7 z"
            fill="#d6f0ff"
            id="path343"/><path
            opacity="0.1"
            d="m 285.801,181.3 c -1.6,-1.9 -3.6,-3.5 -5.8,-4.7 l -64.9,-36.7 64.9,36.7 c 2.2,1.2 4.2,2.8 5.8,4.7 z"
            fill="#000000"
            id="path345"/><path
            d="m 200.7,138 c 1.1,-0.3 2.2,-0.5 3.4,-0.6 -1.2,0.1 -2.3,0.3 -3.4,0.6 z"
            fill="#d6f0ff"
            id="path347"/><path
            opacity="0.1"
            d="m 200.7,138 c 1.1,-0.3 2.2,-0.5 3.4,-0.6 -1.2,0.1 -2.3,0.3 -3.4,0.6 z"
            fill="#000000"
            id="path349"/><path
            d="m 206.7,137.4 c 1.7,0.1 3.3,0.4 5,0.9 -1.7,-0.5 -3.3,-0.8 -5,-0.9 z"
            fill="#d6f0ff"
            id="path351"/><path
            opacity="0.1"
            d="m 206.7,137.4 c 1.7,0.1 3.3,0.4 5,0.9 -1.7,-0.5 -3.3,-0.8 -5,-0.9 z"
            fill="#000000"
            id="path353"/><path
            d="m 289.5,274.4 c -0.2,0.6 -0.4,1.1 -0.7,1.7 0.3,-0.6 0.5,-1.1 0.7,-1.7 z"
            fill="#d6f0ff"
            id="path355"/><path
            opacity="0.1"
            d="m 289.5,274.4 c -0.2,0.6 -0.4,1.1 -0.7,1.7 0.3,-0.6 0.5,-1.1 0.7,-1.7 z"
            fill="#000000"
            id="path357"/><path
            d="m 289.3,186.7 c 0.3,0.8 0.6,1.7 0.8,2.5 -0.2,-0.8 -0.5,-1.6 -0.8,-2.5 z"
            fill="#d6f0ff"
            id="path359"/><path
            opacity="0.1"
            d="m 289.3,186.7 c 0.3,0.8 0.6,1.7 0.8,2.5 -0.2,-0.8 -0.5,-1.6 -0.8,-2.5 z"
            fill="#000000"
            id="path361"/><path
            d="m 289.7,273.8 c 0.6,-1.9 0.9,-3.9 0.9,-6 v -74.5 74.5 c 0,2.1 -0.3,4.1 -0.9,6 z"
            fill="#d6f0ff"
            id="path363"/><path
            opacity="0.1"
            d="m 289.7,273.8 c 0.6,-1.9 0.9,-3.9 0.9,-6 v -74.5 74.5 c 0,2.1 -0.3,4.1 -0.9,6 z"
            fill="#000000"
            id="path365"/></g></g></svg>
